<svg xmlns="http://www.w3.org/2000/svg" viewBox="0 0 1200 900" fill="none">
  <defs>
    <linearGradient id="bg" x1="600" y1="0" x2="600" y2="900" gradientUnits="userSpaceOnUse">
      <stop stop-color="#F6D8BC"/>
      <stop offset="1" stop-color="#C47F5A"/>
    </linearGradient>
  </defs>
  <rect width="1200" height="900" rx="36" fill="url(#bg)"/>
  <rect y="626" width="1200" height="274" fill="#BE835E"/>
  <rect x="118" y="122" width="310" height="234" rx="26" fill="#D6EDF8"/>
  <rect x="152" y="156" width="112" height="166" rx="16" fill="#B8E1F1"/>
  <rect x="282" y="156" width="112" height="166" rx="16" fill="#B8E1F1"/>
  <rect x="514" y="466" width="346" height="122" rx="32" fill="#F3E7D8"/>
  <rect x="490" y="506" width="48" height="110" rx="22" fill="#EBDCCB"/>
  <rect x="836" y="506" width="48" height="110" rx="22" fill="#EBDCCB"/>
  <rect x="610" y="610" width="158" height="26" rx="13" fill="#8B5542"/>
  <rect x="630" y="372" width="114" height="54" rx="18" fill="#6F3652"/>
  <rect x="918" y="176" width="148" height="220" rx="20" fill="#8E5060"/>
  <rect x="944" y="206" width="96" height="22" rx="11" fill="#F0C18E"/>
  <rect x="944" y="246" width="96" height="22" rx="11" fill="#F0C18E"/>
  <rect x="944" y="286" width="96" height="22" rx="11" fill="#F0C18E"/>
  <circle cx="788" cy="206" r="52" fill="#F8E0B3"/>
  <text x="78" y="766" fill="#FFF7EF" font-family="Arial, Helvetica, sans-serif" font-size="68" font-weight="700">Zona giorno</text>
  <text x="78" y="826" fill="#FFF3E7" font-family="Arial, Helvetica, sans-serif" font-size="28">Inserisci qui la foto reale del soggiorno</text>
</svg>
