<svg xmlns="http://www.w3.org/2000/svg" viewBox="0 0 1200 900" fill="none">
  <defs>
    <linearGradient id="bg" x1="600" y1="0" x2="600" y2="900" gradientUnits="userSpaceOnUse">
      <stop stop-color="#D7E4D0"/>
      <stop offset="1" stop-color="#69836A"/>
    </linearGradient>
  </defs>
  <rect width="1200" height="900" rx="36" fill="url(#bg)"/>
  <rect y="646" width="1200" height="254" fill="#7A8F78"/>
  <rect x="128" y="132" width="286" height="226" rx="24" fill="#EDF5FA"/>
  <rect x="162" y="166" width="102" height="158" rx="14" fill="#D1E3F1"/>
  <rect x="282" y="166" width="102" height="158" rx="14" fill="#D1E3F1"/>
  <rect x="436" y="474" width="384" height="108" rx="30" fill="#F7F0E5"/>
  <rect x="406" y="554" width="444" height="78" rx="20" fill="#E8DBC5"/>
  <rect x="870" y="182" width="182" height="332" rx="18" fill="#506356"/>
  <rect x="906" y="216" width="110" height="18" rx="9" fill="#E2BE88"/>
  <rect x="906" y="248" width="110" height="18" rx="9" fill="#E2BE88"/>
  <rect x="906" y="280" width="110" height="18" rx="9" fill="#E2BE88"/>
  <rect x="154" y="468" width="170" height="116" rx="18" fill="#FAFCF6"/>
  <rect x="188" y="498" width="102" height="18" rx="9" fill="#BFC5B1"/>
  <circle cx="622" cy="214" r="44" fill="#F5D79E"/>
  <text x="78" y="766" fill="#F8FFF7" font-family="Arial, Helvetica, sans-serif" font-size="68" font-weight="700">Camera 3</text>
  <text x="78" y="826" fill="#EEF8EC" font-family="Arial, Helvetica, sans-serif" font-size="28">Inserisci qui la foto reale della camera 3</text>
</svg>
