<svg xmlns="http://www.w3.org/2000/svg" viewBox="0 0 1200 900" fill="none">
  <defs>
    <linearGradient id="bg" x1="600" y1="0" x2="600" y2="900" gradientUnits="userSpaceOnUse">
      <stop stop-color="#F1D8C8"/>
      <stop offset="1" stop-color="#A86A58"/>
    </linearGradient>
  </defs>
  <rect width="1200" height="900" rx="36" fill="url(#bg)"/>
  <rect y="646" width="1200" height="254" fill="#9D6655"/>
  <rect x="122" y="132" width="288" height="224" rx="24" fill="#EAF4FA"/>
  <rect x="156" y="166" width="104" height="156" rx="14" fill="#CAE2F2"/>
  <rect x="278" y="166" width="104" height="156" rx="14" fill="#CAE2F2"/>
  <rect x="452" y="470" width="340" height="108" rx="30" fill="#F8EDE3"/>
  <rect x="420" y="552" width="404" height="78" rx="20" fill="#F2DDC9"/>
  <rect x="866" y="184" width="190" height="334" rx="18" fill="#7C4A4F"/>
  <rect x="904" y="218" width="114" height="18" rx="9" fill="#E8C087"/>
  <rect x="904" y="250" width="114" height="18" rx="9" fill="#E8C087"/>
  <rect x="904" y="282" width="114" height="18" rx="9" fill="#E8C087"/>
  <rect x="154" y="466" width="176" height="118" rx="18" fill="#FFF8F1"/>
  <rect x="188" y="496" width="108" height="18" rx="9" fill="#D7B39C"/>
  <circle cx="628" cy="210" r="44" fill="#F7D49A"/>
  <text x="78" y="766" fill="#FFF8F4" font-family="Arial, Helvetica, sans-serif" font-size="68" font-weight="700">Camera 2</text>
  <text x="78" y="826" fill="#FFF2EC" font-family="Arial, Helvetica, sans-serif" font-size="28">Inserisci qui la foto reale della camera 2</text>
</svg>
