<svg xmlns="http://www.w3.org/2000/svg" viewBox="0 0 1200 900" fill="none">
  <defs>
    <linearGradient id="bg" x1="600" y1="0" x2="600" y2="900" gradientUnits="userSpaceOnUse">
      <stop stop-color="#D8EDF4"/>
      <stop offset="1" stop-color="#6FA2B3"/>
    </linearGradient>
  </defs>
  <rect width="1200" height="900" rx="36" fill="url(#bg)"/>
  <rect y="648" width="1200" height="252" fill="#7FA8B2"/>
  <rect x="122" y="122" width="290" height="252" rx="24" fill="#E9F5FA"/>
  <rect x="160" y="160" width="214" height="176" rx="18" fill="#C5E4EF"/>
  <rect x="506" y="204" width="258" height="328" rx="28" fill="#F4F9FB"/>
  <rect x="540" y="238" width="190" height="260" rx="22" fill="#E0EEF3"/>
  <path d="M882 370C882 287 949 220 1034 220C1119 220 1188 287 1188 370V594H882V370Z" fill="#F6FBFD"/>
  <rect x="922" y="558" width="226" height="30" rx="15" fill="#B3D4DF"/>
  <rect x="180" y="474" width="178" height="102" rx="24" fill="#F7FCFD"/>
  <rect x="216" y="504" width="106" height="18" rx="9" fill="#BAD6DE"/>
  <circle cx="634" cy="178" r="42" fill="#FFF0C8"/>
  <text x="78" y="766" fill="#F8FEFF" font-family="Arial, Helvetica, sans-serif" font-size="68" font-weight="700">Bagno</text>
  <text x="78" y="826" fill="#EAFBFF" font-family="Arial, Helvetica, sans-serif" font-size="28">Inserisci qui la foto reale del bagno</text>
</svg>
