<svg xmlns="http://www.w3.org/2000/svg" viewBox="0 0 1600 900" fill="none">
  <defs>
    <linearGradient id="sky" x1="800" y1="0" x2="800" y2="900" gradientUnits="userSpaceOnUse">
      <stop stop-color="#1C2B49"/>
      <stop offset="0.45" stop-color="#8A4960"/>
      <stop offset="1" stop-color="#EFC28A"/>
    </linearGradient>
    <linearGradient id="river" x1="800" y1="610" x2="800" y2="880" gradientUnits="userSpaceOnUse">
      <stop stop-color="#C98A66" stop-opacity="0.85"/>
      <stop offset="1" stop-color="#4D2330"/>
    </linearGradient>
  </defs>
  <rect width="1600" height="900" fill="url(#sky)"/>
  <circle cx="1260" cy="170" r="92" fill="#FFD27A" fill-opacity="0.88"/>
  <path d="M0 512C170 474 286 470 424 510C566 550 692 566 834 531C962 499 1104 464 1254 487C1390 507 1489 557 1600 574V900H0V512Z" fill="#38593D" fill-opacity="0.32"/>
  <path d="M0 590C140 575 283 572 425 610C551 644 678 654 821 623C968 590 1110 558 1257 574C1399 590 1506 630 1600 645V900H0V590Z" fill="#4A3D3C" fill-opacity="0.4"/>
  <path d="M0 688C144 670 295 684 451 706C605 727 748 729 900 706C1063 681 1224 649 1394 672C1469 682 1539 696 1600 708V900H0V688Z" fill="url(#river)"/>
  <path d="M0 724C157 705 318 719 482 744C650 769 799 773 961 748C1121 724 1288 690 1458 716C1508 724 1556 733 1600 742V900H0V724Z" fill="#733244" fill-opacity="0.65"/>
  <g fill="#7F3A46">
    <rect x="88" y="532" width="98" height="156" rx="6"/>
    <rect x="204" y="500" width="92" height="188" rx="6"/>
    <rect x="314" y="548" width="74" height="140" rx="6"/>
    <rect x="1080" y="522" width="88" height="166" rx="6"/>
    <rect x="1184" y="492" width="104" height="196" rx="6"/>
    <rect x="1308" y="544" width="86" height="144" rx="6"/>
  </g>
  <g fill="#8F4A54">
    <rect x="410" y="560" width="116" height="128" rx="8"/>
    <rect x="902" y="552" width="122" height="136" rx="8"/>
  </g>
  <g fill="#6A2837">
    <path d="M602 458L640 392H756L792 458V688H602V458Z"/>
    <path d="M621 392C621 330 672 280 738 280C804 280 858 332 858 392V418H621V392Z"/>
    <rect x="674" y="228" width="127" height="58" rx="12"/>
    <path d="M723 184H751V228H723V184Z"/>
    <path d="M1202 420L1236 356H1318L1344 420V688H1202V420Z"/>
    <rect x="1248" y="308" width="24" height="48"/>
    <rect x="1238" y="264" width="42" height="44" rx="4"/>
    <path d="M452 448L482 390H548L576 448V688H452V448Z"/>
    <rect x="497" y="334" width="28" height="56"/>
  </g>
  <g fill="#D7A46C" fill-opacity="0.26">
    <rect x="226" y="534" width="18" height="18" rx="2"/>
    <rect x="252" y="534" width="18" height="18" rx="2"/>
    <rect x="226" y="562" width="18" height="18" rx="2"/>
    <rect x="252" y="562" width="18" height="18" rx="2"/>
    <rect x="1114" y="552" width="18" height="18" rx="2"/>
    <rect x="1140" y="552" width="18" height="18" rx="2"/>
    <rect x="1114" y="580" width="18" height="18" rx="2"/>
    <rect x="1140" y="580" width="18" height="18" rx="2"/>
  </g>
</svg>
